<?xml version="1.0" encoding="utf-8"?>
<!-- Generator: Adobe Illustrator 24.1.2, SVG Export Plug-In . SVG Version: 6.00 Build 0)  -->
<svg version="1.1" id="Layer_1" xmlns="http://www.w3.org/2000/svg" xmlns:xlink="http://www.w3.org/1999/xlink" x="0px" y="0px"
	 viewBox="0 0 20 20" style="enable-background:new 0 0 20 20;" xml:space="preserve">
<style type="text/css">
	.st0{fill:#63A19D;}
</style>
<g transform="translate(0,-952.36218)">
	<path class="st0" d="M17.2,955.2c-0.5,0-1,0.2-1.4,0.6c-3.2,3.2-5.7,5.9-8.6,8.9l-3-2.5c-0.8-0.8-2.1-0.7-2.9,0.2s-0.7,2.1,0.2,2.9
		c0,0,0.1,0.1,0.1,0.1l4.5,3.8c0.8,0.7,2,0.6,2.8-0.1c3.7-3.7,6.3-6.7,9.9-10.3c0.8-0.8,0.8-2.1,0-2.9
		C18.3,955.4,17.8,955.1,17.2,955.2z"/>
</g>
</svg>
